HIERARCHY
ROOT Hips
{
	OFFSET 0.00000 0.00000 0.00000
	CHANNELS 6 Xposition Yposition Zposition Zrotation Yrotation Xrotation 
	JOINT LHipJoint
	{
		OFFSET 0 0 0
		CHANNELS 3 Zrotation Yrotation Xrotation
		JOINT LeftUpLeg
		{
			OFFSET 1.53927 -1.56553 0.51726
			CHANNELS 3 Zrotation Yrotation Xrotation
			JOINT LeftLeg
			{
				OFFSET 2.38199 -6.54447 0.00000
				CHANNELS 3 Zrotation Yrotation Xrotation
				JOINT LeftFoot
				{
					OFFSET 2.35499 -6.47028 0.00000
					CHANNELS 3 Zrotation Yrotation Xrotation
					JOINT LeftToeBase
					{
						OFFSET 0.13641 -0.37478 1.84251
						CHANNELS 3 Zrotation Yrotation Xrotation
						End Site
						{
							OFFSET 0.00000 -0.00000 0.95212
						}
					}
				}
			}
		}
	}
	JOINT RHipJoint
	{
		OFFSET 0 0 0
		CHANNELS 3 Zrotation Yrotation Xrotation
		JOINT RightUpLeg
		{
			OFFSET -1.43919 -1.56553 0.51726
			CHANNELS 3 Zrotation Yrotation Xrotation
			JOINT RightLeg
			{
				OFFSET -2.34860 -6.45274 0.00000
				CHANNELS 3 Zrotation Yrotation Xrotation
				JOINT RightFoot
				{
					OFFSET -2.25563 -6.19730 0.00000
					CHANNELS 3 Zrotation Yrotation Xrotation
					JOINT RightToeBase
					{
						OFFSET -0.19755 -0.54277 1.84912
						CHANNELS 3 Zrotation Yrotation Xrotation
						End Site
						{
							OFFSET -0.00000 -0.00000 0.97032
						}
					}
				}
			}
		}
	}
	JOINT LowerBack
	{
		OFFSET 0 0 0
		CHANNELS 3 Zrotation Yrotation Xrotation
		JOINT Spine
		{
			OFFSET -0.06402 1.88434 -0.00445
			CHANNELS 3 Zrotation Yrotation Xrotation
			JOINT Spine1
			{
				OFFSET 0.00756 1.88511 0.04237
				CHANNELS 3 Zrotation Yrotation Xrotation
				JOINT Neck
				{
					OFFSET 0 0 0
					CHANNELS 3 Zrotation Yrotation Xrotation
					JOINT Neck1
					{
						OFFSET -0.06230 1.34710 0.03308
						CHANNELS 3 Zrotation Yrotation Xrotation
						JOINT Head
						{
							OFFSET -0.02442 1.34501 -0.13654
							CHANNELS 3 Zrotation Yrotation Xrotation
							End Site
							{
								OFFSET -0.00508 1.35584 -0.05075
							}
						}
					}
				}
				JOINT LeftShoulder
				{
					OFFSET 0 0 0
					CHANNELS 3 Zrotation Yrotation Xrotation
					JOINT LeftArm
					{
						OFFSET 2.76911 0.54460 0.39412
						CHANNELS 3 Zrotation Yrotation Xrotation
						JOINT LeftForeArm
						{
							OFFSET 4.40919 -0.00000 -0.00000
							CHANNELS 3 Zrotation Yrotation Xrotation
							JOINT LeftHand
							{
								OFFSET 3.03857 -0.00000 -0.00000
								CHANNELS 3 Zrotation Yrotation Xrotation
								JOINT LeftFingerBase
								{
									OFFSET 0 0 0
									CHANNELS 3 Zrotation Yrotation Xrotation
									JOINT LeftHandIndex1
									{
										OFFSET 0.52321 -0.00000 -0.00000
										CHANNELS 3 Zrotation Yrotation Xrotation
										End Site
										{
											OFFSET 0.42182 -0.00000 -0.00000
										}
									}
								}
								JOINT LThumb
								{
									OFFSET 0 0 0
									CHANNELS 3 Zrotation Yrotation Xrotation
									End Site
									{
										OFFSET 0.42826 -0.00000 0.42826
									}
								}
							}
						}
					}
				}
				JOINT RightShoulder
				{
					OFFSET 0 0 0
					CHANNELS 3 Zrotation Yrotation Xrotation
					JOINT RightArm
					{
						OFFSET -2.99050 0.75949 0.48975
						CHANNELS 3 Zrotation Yrotation Xrotation
						JOINT RightForeArm
						{
							OFFSET -4.61969 -0.00000 -0.00000
							CHANNELS 3 Zrotation Yrotation Xrotation
							JOINT RightHand
							{
								OFFSET -3.09382 -0.00000 -0.00000
								CHANNELS 3 Zrotation Yrotation Xrotation
								JOINT RightFingerBase
								{
									OFFSET 0 0 0
									CHANNELS 3 Zrotation Yrotation Xrotation
									JOINT RightHandIndex1
									{
										OFFSET -0.50090 -0.00000 -0.00000
										CHANNELS 3 Zrotation Yrotation Xrotation
										End Site
										{
											OFFSET -0.40384 -0.00000 -0.00000
										}
									}
								}
								JOINT RThumb
								{
									OFFSET 0 0 0
									CHANNELS 3 Zrotation Yrotation Xrotation
									End Site
									{
										OFFSET -0.41000 -0.00000 0.41000
									}
								}
							}
						}
					}
				}
			}
		}
	}
}
MOTION
Frames: 5
Frame Time: .0083333
3.7176 15.1295 -2.2696 16.3961 -80.8805 -1.7731 0.0000 0.0000 0.0000 -1.4488 -24.8264 -45.9617 10.2264 17.5352 60.2422 0.4209 1.1970 -12.7480 0.0000 -0.0370 -0.1016 0.0000 0.0000 0.0000 15.1292 9.9889 -44.1938 -7.7552 -15.9362 51.6760 -1.4754 -3.6651 -24.5177 -0.7383 -5.4892 15.3093 -3.2807 -0.6016 16.3052 0.3214 -1.4990 4.4589 2.4970 -0.8039 -4.2898 -7.6101 -7.9077 -1.5385 10.3795 -10.1162 -13.5357 4.5240 -5.2894 -2.8119 -0.0000 -0.0000 0.0000 -111.8988 -60.6052 84.9948 151.7395 -39.3550 -109.7115 -0.0000 -0.0000 8.2042 47.2618 -5.5604 -5.9864 -7.1250 0.0000 -0.0000 14.8709 21.8997 -8.5360 -0.0000 -0.0000 0.0000 52.8332 70.0785 11.7783 -155.5535 35.6328 -112.0348 0.0000 -0.0000 -11.9052 -13.0520 -41.3611 8.7094 7.1250 -0.0000 -0.0000 33.9792 -69.3099 -20.6113
3.7377 15.1152 -2.2398 16.2194 -81.1344 -1.4611 0.0000 0.0000 0.0000 -1.4229 -24.7711 -46.2397 10.6094 17.7386 61.5064 0.4249 1.1212 -12.7701 0.0001 0.0713 0.1959 0.0000 0.0000 0.0000 15.0396 10.0897 -44.5225 -7.7790 -15.9543 51.7626 -1.4453 -3.6230 -24.2656 -0.6592 -5.1929 14.4596 -2.9819 -0.5851 16.2361 0.2760 -1.4287 4.4459 2.2648 -0.7704 -4.2804 -8.0947 -7.9399 -1.7376 11.1510 -10.0904 -13.3771 4.8136 -5.2832 -2.6586 0.0000 -0.0000 0.0000 -112.3448 -60.7202 85.6293 151.7671 -39.3298 -109.7290 -0.0000 -0.0000 7.8101 47.4467 -5.4305 -5.8856 -7.1250 0.0000 -0.0000 15.0281 22.0570 -8.5766 0.0000 -0.0000 0.0000 51.7480 70.3158 10.4680 -155.5323 35.6549 -112.0225 0.0000 -0.0000 -11.9246 -13.3389 -41.1652 8.8707 7.1250 -0.0000 -0.0000 33.3295 -69.2476 -20.1409
3.7603 15.0991 -2.2095 15.7425 -81.4242 -0.8243 0.0000 0.0000 0.0000 -1.3597 -24.6630 -46.5257 10.9954 17.9328 62.7667 0.4401 1.1857 -13.0181 0.0039 -0.4045 -1.1114 0.0000 0.0000 0.0000 14.9916 10.2275 -44.8781 -7.8027 -15.9722 51.8488 -1.4210 -3.5581 -24.0449 -0.6176 -5.0294 13.9924 -2.7576 -0.5953 16.2177 0.3197 -1.4007 4.3685 2.1791 -0.7541 -4.3588 -8.4143 -7.9046 -1.7887 11.5934 -10.0064 -13.3479 4.9937 -5.2451 -2.6038 -0.0000 -0.0000 0.0000 -112.7429 -60.8321 86.0341 151.7763 -39.3214 -109.7349 -0.0000 -0.0000 7.3928 47.4332 -4.9512 -5.3682 -7.1250 0.0000 -0.0000 15.1276 22.7367 -8.3931 -0.0000 -0.0000 0.0000 51.1184 70.6218 9.7351 -155.4838 35.7053 -111.9942 0.0000 -0.0000 -11.9159 -14.0790 -41.2524 9.3899 7.1250 -0.0000 -0.0000 32.6707 -69.5554 -19.9310
3.7754 15.0933 -2.1845 15.5423 -81.7908 -0.6211 0.0000 0.0000 0.0000 -1.3624 -24.5304 -46.5699 11.3602 18.1069 63.9459 0.4748 0.7446 -13.3067 0.0105 -0.6606 -1.8153 0.0000 0.0000 0.0000 14.9733 10.3722 -44.9708 -7.8212 -15.9861 51.9159 -1.4146 -3.3716 -23.9024 -0.6105 -5.0010 13.9115 -2.7452 -0.5784 16.3203 0.4129 -1.3744 4.3154 2.2689 -0.7385 -4.4695 -8.2885 -7.8166 -1.6877 11.5170 -9.8955 -13.4611 4.9626 -5.1963 -2.6760 0.0000 0.0000 0.0000 -113.2166 -61.0616 86.4551 151.7479 -39.3473 -109.7168 -0.0000 -0.0000 6.9645 47.5019 -4.3835 -4.7684 -7.1250 0.0000 -0.0000 15.3053 23.5323 -8.2077 0.0000 0.0000 0.0000 50.8896 70.9754 9.5104 -155.4816 35.7077 -111.9929 0.0000 -0.0000 -11.8840 -14.5668 -41.7727 9.8213 7.1250 -0.0000 -0.0000 33.0570 -70.1274 -20.5928
3.7880 15.0881 -2.1586 15.9733 -82.1098 -1.0501 0.0000 0.0000 0.0000 -1.4452 -24.4735 -46.5635 11.6986 18.2603 65.0302 0.5038 -0.0600 -13.3906 0.0022 -0.3035 -0.8339 0.0000 0.0000 0.0000 14.8449 10.4945 -45.0607 -7.8377 -15.9986 51.9759 -1.4075 -3.2079 -23.7668 -0.5902 -4.9184 13.6760 -2.8415 -0.5737 16.3063 0.5048 -1.3802 4.3380 2.4212 -0.7425 -4.4328 -8.2084 -7.7060 -1.6700 11.4073 -9.7542 -13.5720 4.9251 -5.1279 -2.7366 -0.0000 0.0000 0.0000 -113.6283 -61.3623 86.9367 151.7679 -39.3290 -109.7296 -0.0000 -0.0000 6.5873 47.6216 -3.6854 -4.0296 -7.1250 0.0000 -0.0000 15.5507 24.5105 -7.9827 -0.0000 0.0000 0.0000 50.3424 71.4260 8.9777 -155.4414 35.7495 -111.9694 0.0000 -0.0000 -11.9372 -14.0799 -42.0010 9.5270 7.1250 -0.0000 -0.0000 34.0088 -70.1460 -21.2442
